<svg height="512pt" viewBox="0 0 512 512" width="512pt" xmlns="http://www.w3.org/2000/svg" xmlns:xlink="http://www.w3.org/1999/xlink"><linearGradient id="a" gradientUnits="userSpaceOnUse" x1="0" x2="512" y1="256" y2="256"><stop offset="0" stop-color="#00f1ff"/><stop offset=".231" stop-color="#00d8ff"/><stop offset=".5138" stop-color="#00c0ff"/><stop offset=".7773" stop-color="#00b2ff"/><stop offset="1" stop-color="#00adff"/></linearGradient><path d="m512 256c0 141.386719-114.613281 256-256 256s-256-114.613281-256-256 114.613281-256 256-256 256 114.613281 256 256zm0 0" fill="url(#a)"/><g fill="#fff"><path d="m370.113281 114.046875h-228.230469c-29.722656 0-53.902343 24.179687-53.902343 53.902344v149.773437c0 29.722656 24.179687 53.90625 53.902343 53.90625h82.347657c8.28125 0 15-6.71875 15-15 0-8.285156-6.71875-15-15-15h-82.347657c-13.179687 0-23.902343-10.726562-23.902343-23.90625v-142.464844l109.554687 68.125c8.777344 5.457032 18.621094 8.1875 28.464844 8.1875s19.683594-2.730468 28.464844-8.1875l109.554687-68.125v66.605469c0 8.285157 6.714844 15 15 15 8.285157 0 15-6.714843 15-15v-73.917969c0-29.71875-24.183593-53.898437-53.90625-53.898437zm-101.492187 103.859375c-7.785156 4.839844-17.457032 4.839844-25.242188 0l-113.53125-70.597656c3.539063-2.070313 7.648438-3.261719 12.039063-3.261719h228.230469c4.386718 0 8.496093 1.191406 12.035156 3.261719zm0 0"/><path d="m417.75 281.503906c-6.738281-4.828125-16.105469-3.273437-20.929688 3.464844l-63.855468 89.199219c-1.261719 1.410156-2.8125 1.71875-3.648438 1.773437-.882812.066406-2.574218-.050781-4.015625-1.421875l-41.378906-39.734375c-5.980469-5.738281-15.476563-5.542968-21.210937.433594-5.738282 5.972656-5.542969 15.46875.433593 21.207031l41.425781 39.777344c6.582032 6.265625 15.367188 9.75 24.40625 9.75.777344 0 1.554688-.023437 2.335938-.074219 9.84375-.65625 19.039062-5.445312 25.222656-13.140625.171875-.214843.34375-.4375.503906-.664062l64.175782-89.644531c4.820312-6.734376 3.269531-16.105469-3.464844-20.925782zm0 0"/></g></svg>